<svg xmlns="http://www.w3.org/2000/svg" viewBox="0 0 48 48">
  <!-- No background/outline for the smaller icon -->
  
  <!-- Search bar -->
  <rect x="5" y="10" width="22" height="6" rx="3" fill="#f1f3f4" stroke="#4285f4" stroke-width="1"/>
  <circle cx="24" cy="13" r="3" fill="#4285f4"/>
  <path d="M26 15 L28 17" stroke="#4285f4" stroke-width="1.5" stroke-linecap="round"/>
  
  <!-- Text search results lines -->
  <rect x="5" y="20" width="18" height="1.5" rx="0.75" fill="#5f6368"/>
  <rect x="5" y="24" width="22" height="1.5" rx="0.75" fill="#5f6368"/>
  <rect x="5" y="28" width="20" height="1.5" rx="0.75" fill="#5f6368"/>
  <rect x="5" y="32" width="21" height="1.5" rx="0.75" fill="#5f6368"/>
  <rect x="5" y="36" width="19" height="1.5" rx="0.75" fill="#5f6368"/>
  
  <!-- Image sidebar separator -->
  <rect x="31" y="10" width="1" height="28" fill="#e0e0e0"/>
  
  <!-- Image results -->
  <rect x="35" y="10" width="8" height="6" rx="1" fill="#de5833" opacity="0.8"/>
  <rect x="35" y="18" width="8" height="6" rx="1" fill="#fbbc05" opacity="0.8"/>
  <rect x="35" y="26" width="8" height="6" rx="1" fill="#4285f4" opacity="0.8"/>
  <rect x="35" y="34" width="8" height="6" rx="1" fill="#34a853" opacity="0.8"/>
</svg>